@startuml

skinparam classAttributeIconSize 0

class Product
class ConcreteProduct

class Creator {
  + {abstract} FactoryMethod()
}

class ConcreteCreator {
  + FactoryMethod()
}

Product <|-- ConcreteProduct
Creator <|-- ConcreteCreator
ConcreteProduct <.l. ConcreteCreator

note left of Product: 定义工厂方法所创建的对象的接口
note right of Creator: 声明工厂方法，该方法返回一个Product类型的对象
note left of ConcreteProduct: 具体产品，实现了Product的接口
note right of ConcreteCreator: 重定义工厂方法以返回一个ConcreteProduct实例

@enduml
